# xmcd CD database file
#
# Track frame offsets:
#	150
#	38113
#	58833
#	78945
#	101358
#	128065
#	153533
#	183385
#	200195
#	213645
#	229993
#	243470
#	264183
#	278123
#	291875
#	308583
#
# Disc length: 4327 seconds
#
# Revision: 0
# Processed by: cddbd v1.4PL0 Copyright (c) Steve Scherf et al.
# Submitted via: CDex 1.50
#
DISCID=e710e510
DTITLE=Wynton Kelly - Wynton Kelly! II
DYEAR=1900
DGENRE=Jazz
TTITLE0=Autumn Leaves (Take 1)
TTITLE1=Autumn Leaves (Take 2)
TTITLE2=Autumn Leaves (Take 1/Remake)
TTITLE3=Char's Blues (Take 1)
TTITLE4=Char's Blues (Take 2)
TTITLE5=Char's Blues
TTITLE6=Joe's Avenue (Take 1)
TTITLE7=Joe's Avenue (Take 4)
TTITLE8=Joe's Avenue (Take 8)
TTITLE9=Joe's Avenue (Take 9)
TTITLE10=Joe's Avenue (Take 10)
TTITLE11=Someday My Prince Will Come (Take 2)
TTITLE12=Someday My Prince Will Come (Take 3)
TTITLE13=Someday My Prince Will Come (Take 5)
TTITLE14=Someday My Prince Will Come (Take 6)
TTITLE15=Come Rain Or Come Shine (Mono)
EXTD=
EXTT0=
EXTT1=
EXTT2=
EXTT3=
EXTT4=
EXTT5=
EXTT6=
EXTT7=
EXTT8=
EXTT9=
EXTT10=
EXTT11=
EXTT12=
EXTT13=
EXTT14=
EXTT15=
PLAYORDER=
